<?xml version="1.0" standalone="no"?>
<!DOCTYPE svg PUBLIC "-//W3C//DTD SVG 1.1//EN"
"http://www.w3.org/Graphics/SVG/1.1/DTD/svg11.dtd">

<svg width="558" height="154" view_box="0 0 558 154"
xmlns="http://www.w3.org/2000/svg"
xmlns:link="http://www.w3.org/1999/xlink">\n\n<desc>Généré par Mocodo 2.3.7 le Fri, 25 Feb 2022 00:33:38</desc>

<rect id="frame" x="0" y="0" width="558" height="154" fill="#f7f7f7" stroke="none" stroke-width="0"/>

<!-- Association HAS -->
<line x1="514" y1="77" x2="427" y2="77" stroke="#4393c3" stroke-width="2"/>
<text x="453" y="94.0" fill="#b2182b" font-family="Verdana" font-size="12">1,1</text>
<line x1="345" y1="77" x2="427" y2="77" stroke="#4393c3" stroke-width="2"/>
<text x="380" y="94.0" fill="#b2182b" font-family="Verdana" font-size="12">0,N</text>
<g id="association-HAS">
	<path d="M 433 52 a 14 14 90 0 1 14 14 V 77 h -40 V 66 a 14 14 90 0 1 14 -14" fill="#92c5de" stroke="#92c5de" stroke-width="0"/>
	<path d="M 447 77.0 v 11 a 14 14 90 0 1 -14 14 H 421 a 14 14 90 0 1 -14 -14 V 77.0 H 40" fill="#d1e5f0" stroke="#d1e5f0" stroke-width="0"/>
	<rect x="407" y="52" width="40" height="50" fill="none" rx="14" stroke="#4393c3" stroke-width="2"/>
	<line x1="407" y1="77" x2="447" y2="77" stroke="#4393c3" stroke-width="1"/>
	<text x="414" y="69.7" fill="#000000" font-family="Verdana" font-size="12">HAS</text>
</g>

<!-- Association CATEGORIE_HAS_POST -->
<line x1="50" y1="77" x2="203" y2="77" stroke="#4393c3" stroke-width="2"/>
<text x="96" y="94.0" fill="#b2182b" font-family="Verdana" font-size="12">0,N</text>
<line x1="345" y1="77" x2="203" y2="77" stroke="#4393c3" stroke-width="2"/>
<text x="288" y="94.0" fill="#b2182b" font-family="Verdana" font-size="12">1,N</text>
<g id="association-CATEGORIE_HAS_POST">
	<path d="M 269 52 a 14 14 90 0 1 14 14 V 77 h -160 V 66 a 14 14 90 0 1 14 -14" fill="#92c5de" stroke="#92c5de" stroke-width="0"/>
	<path d="M 283 77.0 v 11 a 14 14 90 0 1 -14 14 H 137 a 14 14 90 0 1 -14 -14 V 77.0 H 160" fill="#d1e5f0" stroke="#d1e5f0" stroke-width="0"/>
	<rect x="123" y="52" width="160" height="50" fill="none" rx="14" stroke="#4393c3" stroke-width="2"/>
	<line x1="123" y1="77" x2="283" y2="77" stroke="#4393c3" stroke-width="1"/>
	<text x="130" y="69.7" fill="#000000" font-family="Verdana" font-size="12">CATEGORIE_HAS_POST</text>
</g>

<!-- Entity POST -->
<g id="entity-POST">
	<g id="frame-POST">
		<rect x="315" y="9" width="60" height="25" fill="#f4a582" stroke="#f4a582" stroke-width="0"/>
		<rect x="315" y="34.0" width="60" height="111" fill="#fddbc7" stroke="#fddbc7" stroke-width="0"/>
		<rect x="315" y="9" width="60" height="136" fill="none" stroke="#d6604d" stroke-width="2"/>
		<line x1="315" y1="34" x2="375" y2="34" stroke="#d6604d" stroke-width="1"/>
	</g>
	<text x="328" y="26.7" fill="#000000" font-family="Verdana" font-size="12">POST</text>
	<text x="320" y="51.7" fill="#000000" font-family="Verdana" font-size="12">id</text>
	<line x1="320" y1="54" x2="332" y2="54" stroke="#000000" stroke-width="1"/>
	<text x="320" y="68.7" fill="#000000" font-family="Verdana" font-size="12">auteur</text>
	<text x="320" y="85.8" fill="#000000" font-family="Verdana" font-size="12">titre</text>
	<text x="320" y="102.8" fill="#000000" font-family="Verdana" font-size="12">contenu</text>
	<text x="320" y="119.8" fill="#000000" font-family="Verdana" font-size="12">date</text>
	<text x="320" y="136.8" fill="#000000" font-family="Verdana" font-size="12">durée</text>
</g>

<!-- Entity CATEGORIE -->
<g id="entity-CATEGORIE">
	<g id="frame-CATEGORIE">
		<rect x="9" y="43" width="82" height="25" fill="#f4a582" stroke="#f4a582" stroke-width="0"/>
		<rect x="9" y="68.0" width="82" height="43" fill="#fddbc7" stroke="#fddbc7" stroke-width="0"/>
		<rect x="9" y="43" width="82" height="68" fill="none" stroke="#d6604d" stroke-width="2"/>
		<line x1="9" y1="68" x2="91" y2="68" stroke="#d6604d" stroke-width="1"/>
	</g>
	<text x="14" y="60.7" fill="#000000" font-family="Verdana" font-size="12">CATEGORIE</text>
	<text x="14" y="85.8" fill="#000000" font-family="Verdana" font-size="12">id</text>
	<line x1="14" y1="88" x2="26" y2="88" stroke="#000000" stroke-width="1"/>
	<text x="14" y="102.8" fill="#000000" font-family="Verdana" font-size="12">nom</text>
</g>

<!-- Entity MESSAGE -->
<g id="entity-MESSAGE">
	<g id="frame-MESSAGE">
		<rect x="479" y="35" width="70" height="25" fill="#f4a582" stroke="#f4a582" stroke-width="0"/>
		<rect x="479" y="60.0" width="70" height="59" fill="#fddbc7" stroke="#fddbc7" stroke-width="0"/>
		<rect x="479" y="35" width="70" height="84" fill="none" stroke="#d6604d" stroke-width="2"/>
		<line x1="479" y1="60" x2="549" y2="60" stroke="#d6604d" stroke-width="1"/>
	</g>
	<text x="484" y="52.7" fill="#000000" font-family="Verdana" font-size="12">MESSAGE</text>
	<text x="484" y="77.8" fill="#000000" font-family="Verdana" font-size="12">id</text>
	<line x1="484" y1="80" x2="496" y2="80" stroke="#000000" stroke-width="1"/>
	<text x="484" y="94.8" fill="#000000" font-family="Verdana" font-size="12">auteur</text>
	<text x="484" y="111.8" fill="#000000" font-family="Verdana" font-size="12">contenu</text>
</g>
</svg>